<?xml version="1.0" encoding="utf-8"?>
<!-- Generator: Adobe Illustrator 16.0.4, SVG Export Plug-In . SVG Version: 6.00 Build 0)  -->
<!DOCTYPE svg PUBLIC "-//W3C//DTD SVG 1.1//EN" "http://www.w3.org/Graphics/SVG/1.1/DTD/svg11.dtd">
<svg version="1.1" id="Capa_1" xmlns="http://www.w3.org/2000/svg" xmlns:xlink="http://www.w3.org/1999/xlink" x="0px" y="0px"
	 width="2383.939px" height="1683.781px" viewBox="0 0 2383.939 1683.781" enable-background="new 0 0 2383.939 1683.781"
	 xml:space="preserve">
<polygon fill="#F8C9D2" points="1673.073,670.425 1729.2,673.512 1715.451,759.947 1701.139,757.701 724.264,757.701 
	690.871,617.385 774.777,621.878 971.5,632.539 1167.939,643.204 1520.412,662.288 "/>
<polygon fill="#F6E6E7" points="724.264,757.701 1701.139,757.701 1715.451,759.947 1645.012,1206.709 831.184,1206.709 "/>
<g>
	<path fill="#454545" d="M1645.012,1234.773H831.184c-12.993,0-24.303-8.925-27.306-21.58L663.562,623.871
		c-2.049-8.616,0.086-17.68,5.752-24.471c5.641-6.877,14.201-10.609,23.066-10.073l1038.33,56.127
		c15.463,0.842,27.332,14.089,26.49,29.552c-0.056,0.953-0.168,1.937-0.309,2.891l-84.189,533.195
		C1670.577,1224.726,1658.817,1234.773,1645.012,1234.773z M853.355,1178.646h767.692l75.547-478.812l-969.717-52.421
		L853.355,1178.646z"/>
	<path fill="#454545" d="M999.562,1599.592h-84.189c-13.078,0-24.414-9.008-27.361-21.748l-84.188-364.817l54.723-12.629
		l79.279,343.07h61.737V1599.592L999.562,1599.592z"/>
	<path fill="#454545" d="M1083.751,1683.781c-61.991,0-112.251-50.261-112.251-112.251c0-61.991,50.26-112.251,112.251-112.251
		c61.99,0,112.251,50.26,112.251,112.251C1196.002,1633.52,1145.741,1683.781,1083.751,1683.781z M1083.751,1515.402
		c-31.009,0-56.127,25.115-56.127,56.127c0,31.009,25.115,56.128,56.127,56.128c31.008,0,56.127-25.116,56.127-56.128
		S1114.763,1515.402,1083.751,1515.402z"/>
	<path fill="#454545" d="M1476.634,1683.781c-61.99,0-112.251-50.261-112.251-112.251c0-61.991,50.261-112.251,112.251-112.251
		s112.251,50.26,112.251,112.251C1588.885,1633.52,1538.624,1683.781,1476.634,1683.781z M1476.634,1515.402
		c-31.008,0-56.127,25.115-56.127,56.127c0,31.009,25.115,56.128,56.127,56.128c31.009,0,56.127-25.116,56.127-56.128
		S1507.643,1515.402,1476.634,1515.402z"/>
	<rect x="1168.052" y="1543.465" fill="#454545" width="224.505" height="56.127"/>
	<path fill="#454545" d="M663.647,624.206l-50.822-203.261H438.304v-56.127h196.439c12.882,0,24.106,8.754,27.221,21.244
		l56.127,224.506L663.647,624.206z"/>
</g>
<g>
	
		<rect x="999.677" y="270.697" transform="matrix(0.9012 -0.4334 0.4334 0.9012 -41.5784 478.0874)" fill="#FFDDB9" width="56.126" height="119.07"/>
</g>
<g>
	
		<rect x="1224.181" y="210.93" transform="matrix(1 -0.0083 0.0083 1 -2.2129 10.4569)" fill="#FFDDB9" width="56.126" height="119.07"/>
</g>
<g>
	
		<rect x="873.629" y="417.951" transform="matrix(0.6879 -0.7258 0.7258 0.6879 -65.124 803.5354)" fill="#FFDDB9" width="56.126" height="119.071"/>
</g>
<g>
	
		<rect x="1435.809" y="288.517" transform="matrix(-0.7666 -0.6421 0.6421 -0.7666 2362.6113 1554.8376)" fill="#FFDDB9" width="56.128" height="119.07"/>
</g>
<g>
	
		<rect x="1521.689" y="462.289" transform="matrix(-0.4878 -0.8729 0.8729 -0.4878 1850.2449 2129.2239)" fill="#FFDDB9" width="56.126" height="119.07"/>
</g>
<g>
	<rect x="859.36" y="841.89" fill="#333333" width="56.127" height="56.127"/>
	<rect x="971.611" y="841.89" fill="#333333" width="56.128" height="56.127"/>
	<rect x="1083.862" y="841.89" fill="#333333" width="56.127" height="56.127"/>
	<rect x="1196.116" y="841.89" fill="#333333" width="56.127" height="56.127"/>
	<rect x="1308.368" y="841.89" fill="#333333" width="56.127" height="56.127"/>
	<rect x="1420.618" y="841.89" fill="#333333" width="56.127" height="56.127"/>
	<rect x="1532.873" y="841.89" fill="#333333" width="56.127" height="56.127"/>
	<rect x="859.36" y="954.141" fill="#333333" width="56.127" height="56.127"/>
	<rect x="971.611" y="954.141" fill="#333333" width="56.128" height="56.127"/>
	<rect x="1083.862" y="954.141" fill="#333333" width="56.127" height="56.127"/>
	<rect x="1196.116" y="954.141" fill="#333333" width="56.127" height="56.127"/>
	<rect x="1308.368" y="954.141" fill="#333333" width="56.127" height="56.127"/>
	<rect x="1420.618" y="954.141" fill="#333333" width="56.127" height="56.127"/>
	<rect x="1532.873" y="954.141" fill="#333333" width="56.127" height="56.127"/>
	<rect x="859.36" y="1066.395" fill="#333333" width="56.127" height="56.127"/>
	<rect x="971.611" y="1066.395" fill="#333333" width="56.128" height="56.127"/>
	<rect x="1083.862" y="1066.395" fill="#333333" width="56.127" height="56.127"/>
	<rect x="1196.116" y="1066.395" fill="#333333" width="56.127" height="56.127"/>
	<rect x="1308.368" y="1066.395" fill="#333333" width="56.127" height="56.127"/>
	<rect x="1420.618" y="1066.395" fill="#333333" width="56.127" height="56.127"/>
	<rect x="1532.873" y="1066.395" fill="#333333" width="56.127" height="56.127"/>
</g>
</svg>
