<?xml version="1.0" encoding="utf-8"?>
<!-- Generator: Adobe Illustrator 16.0.4, SVG Export Plug-In . SVG Version: 6.00 Build 0)  -->
<!DOCTYPE svg PUBLIC "-//W3C//DTD SVG 1.1//EN" "http://www.w3.org/Graphics/SVG/1.1/DTD/svg11.dtd">
<svg version="1.1" id="Capa_1" xmlns="http://www.w3.org/2000/svg" xmlns:xlink="http://www.w3.org/1999/xlink" x="0px" y="0px"
	 width="2383.939px" height="1683.781px" viewBox="0 0 2383.939 1683.781" enable-background="new 0 0 2383.939 1683.781"
	 xml:space="preserve">
<g>
	<g>
		<polygon fill="#E7B0D0" points="1555.666,170.816 1946.768,561.919 1931.439,577.247 2033.86,577.247 2033.86,170.816 		"/>
		<path fill="#E7B0D0" d="M1051.868,170.816H553.294c-112.232,0-203.214,90.982-203.214,203.216
			c0,112.232,90.982,203.215,203.214,203.215h122.801l-15.328-15.328L1051.868,170.816z"/>
	</g>
	<g>
		<path fill="#F6E6E7" d="M830.334,242.9c-18.608,1.394-37.682,2.322-56.929,3.019c-16.025,0.581-28.537,14.022-27.957,30.047
			c0.581,15.677,13.441,27.985,28.973,27.985c0.378,0,0.697,0,1.074-0.028c19.974-0.697,39.801-1.713,59.136-3.136
			c15.996-1.19,27.985-15.125,26.796-31.092C860.236,253.728,846.359,241.651,830.334,242.9z"/>
		<path fill="#F6E6E7" d="M657.456,248.764c-20.205,0.58-40.033,1.306-59.048,2.496c-16.024,0.987-28.188,14.776-27.202,30.772
			c0.958,15.387,13.732,27.231,28.944,27.231c0.609,0,1.219-0.029,1.829-0.059c18.405-1.132,37.536-1.857,57.074-2.38
			c16.024-0.465,28.652-13.79,28.246-29.815C686.894,260.986,673.017,249.519,657.456,248.764z"/>
		<path fill="#F6E6E7" d="M476.624,270.537c-26.33,8.622-46.507,20.147-61.545,35.215c-11.351,11.351-11.351,29.698,0,41.049
			c5.661,5.661,13.093,8.507,20.525,8.507c7.432,0,14.863-2.846,20.524-8.507c8.36-8.331,21.309-15.444,38.582-21.104
			c15.212-4.993,23.544-21.367,18.55-36.638C508.297,273.876,492.011,265.514,476.624,270.537z"/>
		<path fill="#F6E6E7" d="M1801.614,257.909h-58.062c-16.054,0-29.03,12.977-29.03,29.03c0,16.055,12.977,29.031,29.03,29.031
			h58.062c16.055,0,29.031-12.977,29.031-29.031C1830.646,270.885,1817.669,257.909,1801.614,257.909z"/>
		<path fill="#F6E6E7" d="M1975.798,257.909h-58.061c-16.055,0-29.031,12.977-29.031,29.03c0,16.055,12.977,29.031,29.031,29.031
			h58.061c16.055,0,29.031-12.977,29.031-29.031C2004.829,270.885,1991.853,257.909,1975.798,257.909z"/>
	</g>
	<path fill="#EAEAD6" d="M1962.909,577.247L1389.378,4.529c-1.567-1.567-4.122-1.567-5.689,0L810.187,577.247H1962.909z"/>
	<path fill="#BFBDA3" d="M810.971,577.247L1303.767,84.45l-79.921-79.921c-1.567-1.567-4.122-1.567-5.69,0L644.654,577.247H810.971z
		"/>
	<path fill="#6D8C60" d="M1724.132,595.39l8.971-8.97l-344.914-344.45c-0.93-0.929-2.41-0.929-3.339,0l-344.739,344.45l8.971,8.97
		H1724.132z"/>
	<g>
		<path fill="#F8C9D2" d="M350.08,374.032v1127.784c0,98.646,79.951,178.597,178.597,178.597H2033.86V577.247H553.294
			C441.062,577.247,350.08,486.264,350.08,374.032z"/>
	</g>
	<path fill="#F6E6E7" d="M1859.676,722.4h-58.062c-16.054,0-29.031-12.977-29.031-29.031c0-16.054,12.978-29.03,29.031-29.03h58.062
		c16.054,0,29.03,12.977,29.03,29.03C1888.706,709.424,1875.729,722.4,1859.676,722.4z M1685.491,722.4h-58.061
		c-16.055,0-29.031-12.977-29.031-29.031c0-16.054,12.977-29.03,29.031-29.03h58.061c16.055,0,29.031,12.977,29.031,29.03
		C1714.522,709.424,1701.546,722.4,1685.491,722.4z M1511.308,722.4h-58.062c-16.054,0-29.03-12.977-29.03-29.031
		c0-16.054,12.977-29.03,29.03-29.03h58.062c16.054,0,29.03,12.977,29.03,29.03C1540.338,709.424,1527.361,722.4,1511.308,722.4z
		 M1337.123,722.4h-58.062c-16.054,0-29.03-12.977-29.03-29.031c0-16.054,12.977-29.03,29.03-29.03h58.062
		c16.054,0,29.03,12.977,29.03,29.03C1366.153,709.424,1353.177,722.4,1337.123,722.4z M1162.938,722.4h-58.061
		c-16.055,0-29.031-12.977-29.031-29.031c0-16.054,12.977-29.03,29.031-29.03h58.061c16.055,0,29.031,12.977,29.031,29.03
		C1191.97,709.424,1178.993,722.4,1162.938,722.4z M988.755,722.4h-58.062c-16.054,0-29.03-12.977-29.03-29.031
		c0-16.054,12.977-29.03,29.03-29.03h58.062c16.054,0,29.031,12.977,29.031,29.03C1017.786,709.424,1004.809,722.4,988.755,722.4z
		 M814.57,722.4h-58.062c-16.054,0-29.03-12.977-29.03-29.031c0-16.054,12.977-29.03,29.03-29.03h58.062
		c16.055,0,29.031,12.977,29.031,29.03C843.602,709.424,830.625,722.4,814.57,722.4z M640.387,722.4h-58.062
		c-16.054,0-29.031-12.977-29.031-29.031c0-16.054,12.978-29.03,29.031-29.03h58.062c16.054,0,29.03,12.977,29.03,29.03
		C669.417,709.424,656.44,722.4,640.387,722.4z M468.844,704.111c-4.035,0-8.128-0.842-12.048-2.643
		c-20.118-9.202-38.813-21.221-55.564-35.736c-12.105-10.538-13.412-28.886-2.932-40.991c10.538-12.106,28.856-13.412,40.962-2.933
		c12.57,10.916,26.593,19.944,41.688,26.854c14.573,6.648,20.989,23.893,14.312,38.466
		C490.385,697.811,479.876,704.111,468.844,704.111z"/>
	<path fill="#F6E6E7" d="M1859.676,1593.321h-58.062c-16.054,0-29.031-12.977-29.031-29.031c0-16.054,12.978-29.03,29.031-29.03
		h58.062c16.054,0,29.03,12.977,29.03,29.03C1888.706,1580.344,1875.729,1593.321,1859.676,1593.321z M1685.491,1593.321h-58.061
		c-16.055,0-29.031-12.977-29.031-29.031c0-16.054,12.977-29.03,29.031-29.03h58.061c16.055,0,29.031,12.977,29.031,29.03
		C1714.522,1580.344,1701.546,1593.321,1685.491,1593.321z M1511.308,1593.321h-58.062c-16.054,0-29.03-12.977-29.03-29.031
		c0-16.054,12.977-29.03,29.03-29.03h58.062c16.054,0,29.03,12.977,29.03,29.03
		C1540.338,1580.344,1527.361,1593.321,1511.308,1593.321z M1337.123,1593.321h-58.062c-16.054,0-29.03-12.977-29.03-29.031
		c0-16.054,12.977-29.03,29.03-29.03h58.062c16.054,0,29.03,12.977,29.03,29.03
		C1366.153,1580.344,1353.177,1593.321,1337.123,1593.321z M1162.938,1593.321h-58.061c-16.055,0-29.031-12.977-29.031-29.031
		c0-16.054,12.977-29.03,29.031-29.03h58.061c16.055,0,29.031,12.977,29.031,29.03
		C1191.97,1580.344,1178.993,1593.321,1162.938,1593.321z M988.755,1593.321h-58.062c-16.054,0-29.03-12.977-29.03-29.031
		c0-16.054,12.977-29.03,29.03-29.03h58.062c16.054,0,29.031,12.977,29.031,29.03
		C1017.786,1580.344,1004.809,1593.321,988.755,1593.321z M814.57,1593.321h-58.062c-16.054,0-29.03-12.977-29.03-29.031
		c0-16.054,12.977-29.03,29.03-29.03h58.062c16.055,0,29.031,12.977,29.031,29.03
		C843.602,1580.344,830.625,1593.321,814.57,1593.321z M640.387,1593.321h-58.062c-16.054,0-29.031-12.977-29.031-29.031
		c0-16.054,12.978-29.03,29.031-29.03h58.062c16.054,0,29.03,12.977,29.03,29.03C669.417,1580.344,656.44,1593.321,640.387,1593.321
		z M468.844,1575.032c-4.035,0-8.128-0.843-12.048-2.642c-20.118-9.203-38.813-21.222-55.564-35.737
		c-12.105-10.538-13.412-28.886-2.932-40.991c10.538-12.105,28.856-13.412,40.962-2.933c12.57,10.916,26.593,19.944,41.688,26.854
		c14.573,6.648,20.989,23.893,14.312,38.466C490.385,1568.732,479.876,1575.032,468.844,1575.032z"/>
	<path fill="#F6E6E7" d="M2033.86,1307.862h-348.369c-96.207,0-174.184-77.977-174.184-174.185l0,0
		c0-96.207,77.977-174.184,174.184-174.184h348.369V1307.862z"/>
	<path fill="#E7B0D0" d="M2033.86,1273.983h-348.369c-96.207,0-174.184-77.977-174.184-174.185l0,0
		c0-96.207,77.977-174.184,174.184-174.184h348.369V1273.983z"/>
	<circle fill="#FFDDB9" cx="1714.522" cy="1099.799" r="87.092"/>
</g>
</svg>
